<?xml version="1.0" encoding="utf-8"?>
<!DOCTYPE svg PUBLIC "-//W3C//DTD SVG 1.1//EN" "http://www.w3.org/Graphics/SVG/1.1/DTD/svg11.dtd">
<svg version="1.1" xmlns="http://www.w3.org/2000/svg" xmlns:xlink="http://www.w3.org/1999/xlink" x="0px" y="0px"
	 width="612px" height="612px" viewBox="0 0 612 612" enable-background="new 0 0 612 612" xml:space="preserve">
<circle cx="306" cy="306" r="200" stroke="#222222" fill="none" stroke-width="50" />
<path fill-rule="evenodd" clip-rule="evenodd" fill="#222222" stroke="#222222" stroke-miterlimit="10" d="M306.805,493.023
	c-4.737,4.301-9.209,8.569-13.901,12.579c-14.303,12.218-30.131,22.018-47.338,29.624c-11.659,5.153-23.689,9.212-36.135,11.869
	c-8.353,1.783-16.797,3.421-25.284,4.207c-13.306,1.235-26.685,2.334-40.028,2.296c-12.251-0.034-24.497-1.654-36.746-2.563
	c-11.888-0.884-23.235-3.878-33.968-9.015c-17.892-8.564-32.241-21.142-42.17-38.417c-6.295-10.954-8.671-22.929-7.738-35.482
	c1.716-23.093,14.886-38.077,34.691-48.148c6.359-3.233,13.188-5.288,20.287-5.984c9.076-0.891,19.897,4.769,24.021,15.176
	c1.03,2.599,1.492,5.489,1.792,8.291c0.283,2.658-1.371,4.52-3.676,5.648c-2.028,0.993-3.877,0.629-5.788-0.734
	c-4.954-3.533-11.258-3.377-16.2,0.166c-4.809,3.446-6.844,9.697-5.346,15.429c1.465,5.606,4.871,8.804,10.529,10.044
	c22.746,4.989,43.418,0.519,61.621-13.945c7.549-6,14.241-13.066,21.54-19.396c16.591-14.388,33.547-28.35,52.178-40.051
	c9.633-6.052,20.352-9.349,31.733-10.624c19.812-2.22,37.982,2.158,54.731,12.845c0.528,0.338,1.636,0.366,2.15,0.036
	c10.815-6.938,22.502-11.369,35.32-12.854c21.346-2.47,40.687,2.634,58.172,15.025c23.063,16.347,44.684,34.421,65.279,53.784
	c8.59,8.077,19.197,12.729,30.669,15.404c7.687,1.794,15.458,2.261,23.262,1.342c4.033-0.475,8.095-1.218,11.967-2.411
	c5.302-1.636,7.451-6.076,8.045-11.18c1.084-9.303-5.671-16.569-14.99-16.03c-2.26,0.13-4.679,1.106-6.614,2.339
	c-2.293,1.46-4.391,1.888-6.642,0.516c-2.35-1.432-3.654-3.698-3.283-6.457c1.041-7.743,4.666-13.948,11.253-18.372
	c7.056-4.738,14.616-4.742,22.433-2.639c12.104,3.26,22.654,9.204,31.592,18.066c9.787,9.704,14.749,21.42,15.665,35.107
	c1.274,19.031-5.34,35.095-17.695,49.196c-9.093,10.38-19.855,18.525-32.295,24.42c-9.033,4.28-18.535,7.296-28.482,8.315
	c-12.373,1.268-24.785,2.413-37.208,2.862c-10.644,0.385-21.358,0.163-31.985-0.596c-15.38-1.1-30.65-3.396-45.575-7.377
	c-17.129-4.566-33.416-11.266-48.727-20.284c-14.666-8.64-28.008-18.963-39.996-31.043
	C307.603,493.683,307.237,493.4,306.805,493.023z"/>
</svg>
